<svg width="51" height="52" viewBox="0 0 51 52" fill="none" xmlns="http://www.w3.org/2000/svg">
<path d="M47.5634 0.648438L36.5526 3.85068L41.0106 0.833203C38.1962 1.46914 34.6405 2.71309 30.1718 4.7208L22.8778 12.3252L25.4667 7.01318C22.9638 8.40537 20.3104 10.2305 17.7538 12.3682L16.0565 19.2754L15.6913 14.1621C13.1669 16.4824 10.7929 19.0605 8.82705 21.7783C6.76133 24.625 5.14678 27.6328 4.33789 30.6299L1.31719 28.6103C1.58789 31.1562 2.42471 33.3691 3.79756 35.3994L0.186035 34.293C1.00674 36.8174 2.34844 38.4502 4.61719 39.7715C3.34639 43.3486 2.7502 47.0869 2.10996 50.8145L4.08652 51.1475C6.37891 28.2988 22.5556 13.7324 37.1757 7.27852L37.9169 9.14551C24.8437 15 14.6815 24.8828 9.36416 39.127C11.3085 39.1377 13.2099 38.9014 14.9716 38.4502L15.4979 31.9082L16.9052 37.8701C18.0761 37.4404 19.1503 36.9248 20.1063 36.3232L17.8827 31.6504L21.4062 35.3887C22.2655 34.7012 22.9745 33.9277 23.5116 33.0791C26.7772 27.9766 30.1933 22.9062 36.9179 18.6631L32.0087 16.9229L39.539 17.1484C40.7636 16.5254 42.0526 15.7627 43.0302 15.043L37.6913 14.6133L45.7157 12.7227C46.3388 12.0996 46.9188 11.4443 47.4452 10.7891C49.3036 8.43223 50.5604 5.97871 50.2597 3.74756C50.12 2.63145 49.454 1.58193 48.369 0.994336C48.1005 0.854687 47.8105 0.731152 47.5634 0.648438Z" fill="#222222"/>
</svg>
